# Blender v2.75 (sub 0) OBJ File: 'asteroids.blend'
# www.blender.org
mtllib asteroids.mtl
o Icosphere
v 0.000000 -1.000000 0.000000
v 0.792444 -0.407006 0.501924
v -0.276388 -0.447220 0.850649
v -1.009947 -0.455453 0.014782
v -0.358216 -0.525720 -1.047762
v 0.669096 -0.418030 -0.552500
v 0.346860 0.559588 0.910749
v -0.709218 0.422625 0.384094
v -0.797045 0.427169 -0.595217
v 0.268875 0.397506 -1.020297
v 1.033736 0.599798 0.036299
v -0.086986 0.923666 0.028866
v -0.162456 -0.850654 0.499995
v 0.425323 -0.850654 0.309011
v 0.262869 -0.525738 0.809012
v 0.850648 -0.525736 0.000000
v 0.425323 -0.850654 -0.309011
v -0.525730 -0.850652 0.000000
v -0.803710 -0.533974 0.514778
v -0.162456 -0.850654 -0.499995
v -0.877147 -0.554024 -0.554707
v 0.184574 -0.577517 -0.949312
v 1.019895 0.040214 0.285212
v 0.931579 0.013791 -0.381599
v 0.000000 0.000000 1.000000
v 0.656623 0.040214 0.785216
v -0.900343 0.046828 0.201992
v -0.601973 -0.036543 0.722480
v -0.634085 -0.129525 -1.010880
v -1.063385 0.058285 -0.274407
v 0.533404 -0.076137 -0.970402
v 0.012680 -0.076137 -1.139596
v 0.827499 0.678319 0.536295
v -0.192396 0.638106 0.869111
v -0.700449 0.496839 -0.072452
v -0.339219 0.435810 -0.954858
v 0.827499 0.678319 -0.463698
v 0.119997 0.910540 0.509110
v 0.665039 1.003234 0.036299
v -0.444383 0.798171 0.288527
v -0.425323 0.850654 -0.309011
v 0.231293 0.890868 -0.523796
vt 0.475213 0.126302
vt 0.400969 0.191885
vt 0.358179 0.064863
vt 0.352447 0.260890
vt 0.416182 0.280387
vt 0.513533 0.000110
vt 0.606054 0.140251
vt 0.498034 0.228462
vt 0.348647 0.324754
vt 0.215156 0.108084
vt 0.303218 0.188382
vt 0.212097 0.227693
vt 0.203578 0.746515
vt 0.135313 0.695376
vt 0.244209 0.668445
vt 0.304658 0.896568
vt 0.245423 0.818254
vt 0.331872 0.835194
vt 0.496499 0.329130
vt 0.645223 0.306913
vt 0.551208 0.447486
vt 0.290696 0.283162
vt 0.078044 0.165362
vt 0.284517 0.734699
vt 0.398362 0.910661
vt 0.420173 0.373333
vt 0.227620 0.318656
vt 0.281374 0.360244
vt 0.191712 0.388921
vt 0.000110 0.302549
vt 0.155112 0.314319
vt 0.061460 0.413119
vt 0.357312 0.745844
vt 0.343788 0.662670
vt 0.431494 0.681313
vt 0.506441 0.880980
vt 0.417348 0.805522
vt 0.562047 0.733348
vt 0.330919 0.389397
vt 0.361929 0.450696
vt 0.282597 0.430561
vt 0.303187 0.564525
vt 0.154845 0.494255
vt 0.481268 0.564525
vt 0.492783 0.605155
vt 0.394455 0.564745
vt 0.287893 0.586944
vt 0.465638 0.999890
vt 0.324994 0.999890
vt 0.156749 0.584378
vt 0.037496 0.618328
vt 0.188521 0.947129
vt 0.114594 0.825656
vt 0.000110 0.739468
vn 0.102400 -0.943500 0.315100
vn 0.693700 -0.678800 0.241000
vn -0.268000 -0.943500 0.194700
vn -0.268000 -0.943500 -0.194700
vn 0.102400 -0.943500 -0.315100
vn 0.909200 -0.369000 0.192700
vn 0.024700 -0.330400 0.943500
vn -0.919900 0.056000 0.388200
vn -0.628100 -0.373800 -0.682500
vn 0.645900 -0.474600 -0.598000
vn 0.802600 -0.125600 0.583100
vn -0.415900 -0.046300 0.908200
vn -0.942100 0.084600 0.324500
vn -0.191700 -0.042200 -0.980600
vn 0.812000 -0.294000 -0.504200
vn 0.239200 0.794100 0.558800
vn -0.670200 0.587900 0.453000
vn -0.769200 0.636400 0.057300
vn -0.031400 0.707800 -0.705700
vn 0.724000 0.661700 -0.194700
vn -0.103300 0.987600 -0.118100
vn 0.341200 0.835000 -0.431700
vn 0.310800 0.685900 -0.658000
vn -0.098200 0.988500 -0.115200
vn -0.228400 0.805000 -0.547500
vn -0.428600 0.733100 -0.528000
vn -0.281400 0.956700 0.075000
vn -0.779200 0.626100 0.030100
vn -0.804900 0.588000 0.080100
vn -0.242500 0.961300 0.130800
vn -0.320800 0.868200 0.378600
vn 0.062800 0.768800 0.636300
vn -0.105600 0.991700 0.072600
vn 0.259800 0.846100 0.465400
vn 0.724000 0.661700 0.194700
vn 0.925300 0.099700 -0.366000
vn 0.822700 0.059000 -0.565400
vn 0.611500 0.262900 -0.746300
vn -0.084700 0.286200 -0.954400
vn -0.207200 0.202900 -0.957000
vn -0.577500 0.373200 -0.726200
vn -0.782800 0.619200 0.062100
vn -0.798800 0.529300 0.286100
vn -0.900200 0.432200 0.053000
vn -0.716300 0.297700 0.631000
vn -0.420900 0.058800 0.905200
vn -0.048600 0.186600 0.981200
vn 0.583000 0.155000 0.797500
vn 0.809000 0.012600 0.587700
vn 0.923100 0.137000 0.359300
vn 0.308200 0.072200 -0.948600
vn 0.299400 -0.247100 -0.921600
vn 0.141200 -0.308600 -0.940700
vn -0.837700 0.147500 -0.525900
vn -0.867400 -0.036600 -0.496300
vn -0.960300 -0.205900 -0.188300
vn -0.840700 0.180100 0.510800
vn -0.850600 0.132500 0.508800
vn -0.514600 -0.144200 0.845200
vn 0.313000 -0.042700 0.948800
vn 0.315800 -0.180500 0.931500
vn 0.527700 -0.334300 0.780800
vn 0.988500 -0.081300 -0.127700
vn 0.966100 -0.229000 -0.118900
vn 0.854700 -0.379100 -0.354700
vn 0.608800 -0.620900 -0.493800
vn 0.140600 -0.890500 -0.432700
vn 0.011200 -0.858300 -0.513100
vn -0.326600 -0.859500 -0.393100
vn -0.353600 -0.899400 -0.256900
vn -0.632500 -0.774500 -0.013400
vn -0.623900 -0.769500 0.136500
vn -0.416400 -0.857400 0.302600
vn -0.316200 -0.671600 0.670000
vn 0.716300 -0.602100 -0.352700
vn 0.607100 -0.794700 0.000000
vn 0.331300 -0.943500 0.000000
vn -0.038500 -0.661700 0.748800
vn 0.187600 -0.794700 0.577300
vn 0.484000 -0.653500 0.581900
usemtl None
s off
f 1/1/1 14/2/1 13/3/1
f 2/4/2 14/2/2 16/5/2
f 1/1/3 13/3/3 18/6/3
f 1/1/4 18/6/4 20/7/4
f 1/1/5 20/7/5 17/8/5
f 2/4/6 16/5/6 23/9/6
f 3/10/7 15/11/7 25/12/7
f 4/13/8 19/14/8 27/15/8
f 5/16/9 21/17/9 29/18/9
f 6/19/10 22/20/10 31/21/10
f 2/4/11 23/9/11 26/22/11
f 3/10/12 25/12/12 28/23/12
f 4/13/13 27/15/13 30/24/13
f 5/16/14 29/18/14 32/25/14
f 6/19/15 31/21/15 24/26/15
f 7/27/16 33/28/16 38/29/16
f 8/30/17 34/31/17 40/32/17
f 9/33/18 35/34/18 41/35/18
f 10/36/19 36/37/19 42/38/19
f 11/39/20 37/40/20 39/41/20
f 39/41/21 42/42/21 12/43/21
f 39/41/22 37/40/22 42/42/22
f 37/40/23 10/44/23 42/42/23
f 42/38/24 41/35/24 12/45/24
f 42/38/25 36/37/25 41/35/25
f 36/37/26 9/33/26 41/35/26
f 41/35/27 40/46/27 12/45/27
f 41/35/28 35/34/28 40/46/28
f 35/34/29 8/47/29 40/46/29
f 40/32/30 38/29/30 12/43/30
f 40/32/31 34/31/31 38/29/31
f 34/31/32 7/27/32 38/29/32
f 38/29/33 39/41/33 12/43/33
f 38/29/34 33/28/34 39/41/34
f 33/28/35 11/39/35 39/41/35
f 24/26/36 37/40/36 11/39/36
f 24/26/37 31/21/37 37/40/37
f 31/21/38 10/44/38 37/40/38
f 32/25/39 36/37/39 10/36/39
f 32/25/40 29/18/40 36/37/40
f 29/18/41 9/33/41 36/37/41
f 30/24/42 35/34/42 9/33/42
f 30/24/43 27/15/43 35/34/43
f 27/15/44 8/47/44 35/34/44
f 28/23/45 34/31/45 8/30/45
f 28/23/46 25/12/46 34/31/46
f 25/12/47 7/27/47 34/31/47
f 26/22/48 33/28/48 7/27/48
f 26/22/49 23/9/49 33/28/49
f 23/9/50 11/39/50 33/28/50
f 31/48/51 32/25/51 10/36/51
f 31/48/52 22/49/52 32/25/52
f 22/49/53 5/16/53 32/25/53
f 29/18/54 30/24/54 9/33/54
f 29/18/55 21/17/55 30/24/55
f 21/17/56 4/13/56 30/24/56
f 27/15/57 28/50/57 8/47/57
f 27/15/58 19/14/58 28/50/58
f 19/14/59 3/51/59 28/50/59
f 25/12/60 26/22/60 7/27/60
f 25/12/61 15/11/61 26/22/61
f 15/11/62 2/4/62 26/22/62
f 23/9/63 24/26/63 11/39/63
f 23/9/64 16/5/64 24/26/64
f 16/5/65 6/19/65 24/26/65
f 17/8/66 22/20/66 6/19/66
f 17/8/67 20/7/67 22/20/67
f 20/52/68 5/16/68 22/49/68
f 20/52/69 21/17/69 5/16/69
f 20/52/70 18/53/70 21/17/70
f 18/53/71 4/13/71 21/17/71
f 18/53/72 19/14/72 4/13/72
f 18/53/73 13/54/73 19/14/73
f 13/54/74 3/51/74 19/14/74
f 16/5/75 17/8/75 6/19/75
f 16/5/76 14/2/76 17/8/76
f 14/2/77 1/1/77 17/8/77
f 13/3/78 15/11/78 3/10/78
f 13/3/79 14/2/79 15/11/79
f 14/2/80 2/4/80 15/11/80
